# AST/ASF file generated using VICON BodyLanguage
# -----------------------------------------------
:version 1.10
:name VICON
:units
  mass 1.0
  length 0.45
  angle deg
:documentation
   .ast/.asf automatically generated from VICON data using
   VICON BodyBuilder and BodyLanguage model FoxedUp or BRILLIANT.MOD
:root
   order TX TY TZ RX RY RZ
   axis XYZ
   position 0 0 0  
   orientation 0 0 0 
:bonedata
  begin
     id 1 
     name lhipjoint
     direction 0.558404 -0.748506 0.357664 
     length 2.4234 
     axis 0 0 0  XYZ
  end
  begin
     id 2 
     name lfemur
     direction 0.34202 -0.939693 0  
     length 7.14567  
     axis 0 0 20  XYZ
    dof rx ry rz
    limits (-160.0 20.0)
           (-70.0 70.0)
           (-60.0 70.0)
  end
  begin
     id 3 
     name ltibia
     direction 0.34202 -0.939693 0   
     length 8.13956   
     axis 0 0 20   XYZ
    dof rx
    limits (-10.0 170.0)
  end
  begin
     id 4 
     name lfoot
     direction 0.0791314 -0.217412 0.972867   
     length 2.00134   
     axis -90 7.62852e-016 20   XYZ
    dof rx rz
    limits (-45.0 90.0)
           (-70.0 20.0)
  end
  begin
     id 5 
     name ltoes
     direction 1.53547e-011 -4.21922e-011 1   
     length 1.00735   
     axis -90 7.62852e-016 20   XYZ
    dof rx
    limits (-90.0 20.0)
  end
  begin
     id 6 
     name rhipjoint
     direction -0.496392 -0.78327 0.374276   
     length 2.31584  
     axis 0 0 0  XYZ 
  end
  begin
     id 7 
     name rfemur
     direction -0.34202 -0.939693 0   
     length 7.47417   
     axis 0 0 -20   XYZ
    dof rx ry rz
    limits (-160.0 20.0)
           (-70.0 70.0)
           (-70.0 60.0)
  end
  begin
     id 8 
     name rtibia
     direction -0.34202 -0.939693 0   
     length 7.69071   
     axis 0 0 -20   XYZ
    dof rx
    limits (-10.0 170.0)
 end
 begin
     id 9 
     name rfoot
     direction -0.103069 -0.28318 0.953512   
     length 2.16135  
     axis -90 -7.62852e-016 -20   XYZ
    dof rx rz
    limits (-45.0 90.0)
           (-20.0 70.0)
  end
  begin
     id 10 
     name rtoes
     direction -1.53581e-011 -4.21904e-011 1   
     length 1.07867   
     axis -90 -7.62852e-016 -20   XYZ
    dof rx
    limits (-90.0 20.0)
  end
  begin
     id 11 
     name lowerback
     direction -0.0258961 0.994776 -0.0987407   
     length 2.19412   
     axis 0 0 0   XYZ
    dof rx ry rz
    limits (-20.0 45.0)
           (-30.0 30.0)
           (-30.0 30.0)
  end
  begin
     id 12 
     name upperback
     direction 0.0402454 0.999185 0.00320666   
     length 2.18445   
     axis 0 0 0   XYZ
    dof rx ry rz
    limits (-20.0 45.0)
           (-30.0 30.0)
           (-30.0 30.0)
  end
  begin
     id 13 
     name thorax
     direction 0.0519376 0.997415 0.0496558   
     length 2.21487   
     axis 0 0 0   XYZ
    dof rx ry rz
    limits (-20.0 45.0)
           (-30.0 30.0)
           (-30.0 30.0)
  end
  begin
     id 14 
     name lowerneck
     direction -0.0921276 0.983211 0.157506   
     length 1.61201   
     axis 0 0 0   XYZ
    dof rx ry rz
    limits (-20.0 45.0)
           (-30.0 30.0)
           (-30.0 30.0)
  end
  begin
     id 15 
     name upperneck
     direction 0.0820814 0.98162 -0.172292   
     length 1.65275   
     axis 0 0 0   XYZ
    dof rx ry rz
    limits (-20.0 45.0)
           (-30.0 30.0)
           (-30.0 30.0)
  end
  begin
     id 16
     name head
     direction 0.0336554 0.996413 -0.0776455  
     length 1.66415  
     axis 0 0 0   XYZ
    dof rx ry rz
    limits (-20.0 45.0)
           (-30.0 30.0)
           (-30.0 30.0)
  end
  begin
     id 17 
     name lclavicle
     direction 0.94696 0.284418 -0.149576  
     length 3.41447  
     axis 0 0 0   XYZ
    dof ry rz
    limits (-20.0 10.0)
           (0.0 20.0)
  end
  begin
     id 18 
     name lhumerus
     direction 1 -0.000130264 -9.81312e-005   
     length 5.19964   
     axis 180 -30 -90   XYZ
    dof rx ry rz
    limits (-60.0 90.0)
           (-90.0 90.0)
           (-90.0 90.0)
  end
  begin
     id 19
     name lradius
     direction 1 -4.48961e-011 1.43854e-026   
     length 3.32189   
     axis 180 -30 -90   XYZ
    dof rx
    limits (-10.0 170.0)
  end
  begin
     id 20
     name lwrist
     direction 1 -4.48958e-011 3.1502e-026   
     length 1.66095   
     axis -1.97692e-014 90 90   XYZ
    dof ry
    limits (-180.0 0.0)
 end
  begin
     id 21 
     name lhand
     direction 1 -4.48927e-011 6.3004e-026   
     length 0.645616   
     axis -4.02019e-014 90 90   XYZ
    dof rx rz
    limits (-90.0 90.0)
           (-45.0 45.0)
  end
  begin
     id 22 
     name lfingers
     direction 1 -4.4904e-011 1.26008e-025   
     length 0.520512   
     axis -8.04039e-014 90 90   XYZ
    dof rx
    limits (0.0 90.0)
  end
  begin
     id 23
     name lthumb
     direction 0.707107 -6.34947e-011 0.707107   
     length 0.747354   
     axis -90 45 2.85299e-015   XYZ
    dof rx rz
    limits (-45.0 45.0)
           (-45.0 45.0)
  end
  begin
     id 24 
     name rclavicle
     direction -0.909391 0.383475 -0.161107   
     length 3.25176  
     axis 0 0 0   XYZ 
    dof ry rz
    limits (-10.0 20.0)
           (-20.0 0.0)
  end
  begin
     id 25 
     name rhumerus
     direction -1 -4.48965e-011 -1.81384e-027  
     length 5.6595   
     axis 180 30 90   XYZ
    dof rx ry rz
    limits (-90.0 60.0)
           (-90.0 90.0)
           (-90.0 90.0)
  end
  begin
     id 26 
     name rradius
     direction -1 -4.48996e-011 -8.09397e-027   
     length 3.37604   
     axis 180 30 90   XYZ
    dof rx
    limits (-10.0 170.0)
  end
  begin
     id 27 
     name rwrist
     direction -1 -4.48927e-011 -1.56669e-026   
     length 1.68802   
     axis 1.21142e-014 -90 -90   XYZ
    dof ry
    limits (-180.0 0.0)
  end
  begin
     id 28
     name rhand
     direction -1 -4.48912e-011 -3.13339e-026   
     length 0.824702   
     axis 1.99937e-014 -90 -90   XYZ
    dof rx rz
    limits (-90.0 90.0)
           (-45.0 45.0)
  end
  begin
     id 29
     name rfingers
     direction -1 -4.49011e-011 -6.26677e-026   
     length 0.664896   
     axis 3.99874e-014 -90 -90   XYZ
    dof rx
    limits (0.0 90.0)
  end
  begin
     id 30
     name rthumb
     direction -0.707107 -6.34931e-011 0.707107   
     length 0.954662   
     axis -90 -45 -2.85299e-015   XYZ
    dof rx rz
    limits (-45.0 45.0)
           (-45.0 45.0)
  end
:hierarchy
  begin
    root lhipjoint rhipjoint lowerback
    lhipjoint lfemur
    lfemur ltibia
    ltibia lfoot
    lfoot ltoes
    rhipjoint rfemur
    rfemur rtibia
    rtibia rfoot
    rfoot rtoes
    lowerback upperback
    upperback thorax
    thorax lowerneck lclavicle rclavicle
    lowerneck upperneck
    upperneck head
    lclavicle lhumerus
    lhumerus lradius
    lradius lwrist
    lwrist lhand lthumb
    lhand lfingers
    rclavicle rhumerus
    rhumerus rradius
    rradius rwrist
    rwrist rhand rthumb
    rhand rfingers
  end

#!OML:ASF F:\VICON\USERDATA\INSTALL\rory3\rory3.ASF
:FULLY-SPECIFIED
:DEGREES
106
root 3.9035 17.4673 -11.0553 18.6005 -25.3828 -26.769
lowerback 11.9578 2.28951 7.83262
upperback 0.887762 4.72366 12.8749
thorax -6.32944 2.22541 8.75129
lowerneck -9.64141 -6.96081 -14.6948
upperneck 28.342 -10.6979 12.1362
head 12.4273 -5.10353 5.63446
rclavicle -9.30312e-014 -7.15625e-015
rhumerus -15.596 10.9771 -45.5975
rradius 87.2857
rwrist -6.00812
rhand -19.4531 23.3287
rfingers 7.12502
rthumb 6.86776 -6.53989
lclavicle -9.30312e-014 -7.15625e-015
lhumerus -36.8313 21.3711 0.916697
lradius 29.3317
lwrist -1.73659
lhand -8.53256 41.5551
lfingers 7.12502
lthumb 17.3964 70.7966
rfemur 21.947 0.175697 19.35
rtibia 29.7634
rfoot 18.9489 -5.54511
rtoes 10.2172
lfemur -56.5496 14.3922 -1.42633
ltibia 42.3282
lfoot -12.5358 2.16663
ltoes -8.95101
107
root 3.83581 17.4462 -10.5767 17.7329 -25.6941 -26.9367
lowerback 11.7562 3.23534 8.75553
upperback 0.467191 6.11196 11.9554
thorax -6.59926 2.86597 6.92849
lowerneck -7.9708 -7.83924 -12.8417
upperneck 28.5553 -12.6658 12.2576
head 12.3673 -5.83956 5.10016
rclavicle -5.48646e-014 -1.43125e-014
rhumerus -19.0131 8.15204 -45.7876
rradius 86.8984
rwrist -5.98774
rhand -19.966 23.5403
rfingers 7.12502
rthumb 6.37266 -6.34386
lclavicle -5.48646e-014 -1.43125e-014
lhumerus -32.9381 20.1603 0.77367
lradius 29.1778
lwrist -1.99124
lhand -9.32938 41.8271
lfingers 7.12502
lthumb 16.6294 71.1347
rfemur 23.4097 1.08192 18.2108
rtibia 31.1781
rfoot 19.5851 -4.46839
rtoes 10.6814
lfemur -54.489 13.1005 0.0879122
ltibia 38.6197
lfoot -12.254 3.34287
ltoes -8.02838
108
root 3.76923 17.4116 -10.1028 16.9919 -25.8285 -27.1584
lowerback 11.1484 2.7603 8.65915
upperback 1.26757 5.24489 12.6255
thorax -5.40513 2.46691 7.9126
lowerneck -9.54497 -7.64705 -14.2233
upperneck 29.4611 -11.9415 12.011
head 13.0458 -5.62719 5.34185
rclavicle 3.95581e-014 1.11319e-013
rhumerus -15.2669 7.03994 -45.4846
rradius 83.8132
rwrist -5.32039
rhand -19.8479 24.5446
rfingers 7.12502
rthumb 6.48665 -5.33602
lclavicle 3.95581e-014 1.11319e-013
lhumerus -36.0428 20.0323 -1.37148
lradius 29.8751
lwrist -1.83098
lhand -10.0145 40.964
lfingers 7.12502
lthumb 15.9697 70.3257
rfemur 24.532 1.925 17.2155
rtibia 32.8988
rfoot 20.6824 -3.55896
rtoes 13.5563
lfemur -52.6575 11.6141 1.70229
ltibia 35.2225
lfoot -12.5475 4.64557
ltoes -9.96071
109
root 3.70305 17.3595 -9.63176 16.1749 -25.801 -27.2338
lowerback 10.7091 2.61642 8.83412
upperback 1.5009 4.96045 12.8288
thorax -4.88572 2.33044 8.10516
lowerneck -9.61614 -7.69338 -14.7388
upperneck 30.0108 -11.936 11.9253
head 13.3293 -5.69233 5.41655
rclavicle 4.77083e-015 3.65764e-014
rhumerus -16.7478 8.79457 -43.9192
rradius 85.4885
rwrist -7.50461
rhand -21.388 23.0152
rfingers 7.12502
rthumb 4.99976 -6.90579
lclavicle 4.77083e-015 3.65764e-014
lhumerus -37.1364 18.7533 -2.58863
lradius 30.7208
lwrist -1.35258
lhand -10.6021 41.5413
lfingers 7.12502
lthumb 15.4038 70.9474
rfemur 25.508 2.8581 16.3001
rtibia 34.9592
rfoot 21.4769 -2.68087
rtoes 15.3257
lfemur -51.0393 9.90742 3.17683
ltibia 32.237
lfoot -13.0558 6.23935
ltoes -12.1696
110
root 3.63633 17.2934 -9.15968 15.3294 -25.9072 -27.2693
lowerback 10.2489 2.62523 9.01528
upperback 1.57331 4.89964 12.875
thorax -4.53126 2.30333 8.07891
lowerneck -9.06804 -7.76626 -14.8923
upperneck 30.3545 -12.095 11.7794
head 13.3882 -5.82117 5.38523
rclavicle 3.97569e-016 -5.24792e-014
rhumerus -17.5175 8.09014 -43.4379
rradius 84.876
rwrist -7.76605
rhand -21.5809 22.7636
rfingers 7.12502
rthumb 4.81343 -7.16171
lclavicle 3.97569e-016 -5.24792e-014
lhumerus -37.4355 17.4512 -3.56859
lradius 31.4132
lwrist -0.884489
lhand -11.2592 41.5889
lfingers 7.12502
lthumb 14.7708 71.0426
rfemur 26.2916 4.11571 15.4772
rtibia 37.3681
rfoot 21.8673 -1.6212
rtoes 15.385
lfemur -49.4273 7.9948 4.73902
ltibia 29.7337
lfoot -13.7478 8.38515
ltoes -11.6036
111
root 3.57052 17.2132 -8.68972 14.5716 -25.9955 -27.3959
lowerback 9.61315 2.6544 9.31274
upperback 1.82714 4.8096 12.9103
thorax -3.86886 2.26407 7.98606
lowerneck -8.9948 -7.86726 -14.8172
upperneck 30.6192 -12.2349 11.5538
head 13.4886 -5.9029 5.26685
rclavicle -2.34566e-014 -4.69132e-014
rhumerus -18.091 7.15263 -43.0309
rradius 84.0465
rwrist -7.93523
rhand -21.7522 22.7151
rfingers 7.12502
rthumb 4.64809 -7.21387
lclavicle -2.34566e-014 -4.69132e-014
lhumerus -37.6478 16.9709 -4.6953
lradius 31.9667
lwrist -1.00789
lhand -11.725 40.3474
lfingers 7.12502
lthumb 14.322 69.8334
rfemur 26.7732 5.46015 14.8587
rtibia 40.1353
rfoot 22.1251 -0.740693
rtoes 16.445
lfemur -48.0025 6.07351 6.3072
ltibia 27.7272
lfoot -14.5626 10.9174
ltoes -10.2871
112
root 3.50623 17.1187 -8.22958 13.7842 -26.0205 -27.3594
lowerback 9.88431 2.6195 9.06796
upperback 1.43103 4.86786 13.0809
thorax -4.493 2.29295 8.30251
lowerneck -8.59033 -7.85544 -14.7083
upperneck 31.424 -12.2378 11.0062
head 13.7 -5.97722 5.06346
rclavicle -1.63003e-014 -3.10104e-014
rhumerus -19.2293 6.8603 -42.5745
rradius 82.9567
rwrist -8.22975
rhand -21.7564 22.8796
rfingers 7.12502
rthumb 4.64397 -7.04953
lclavicle -1.63003e-014 -3.10104e-014
lhumerus -38.0964 15.1661 -5.54606
lradius 32.7718
lwrist -0.965691
lhand -12.5603 39.873
lfingers 7.12502
lthumb 13.517 69.4143
rfemur 27.0062 6.77053 14.1844
rtibia 43.2131
rfoot 22.4911 -0.403025
rtoes 18.898
lfemur -46.9151 4.75775 7.14385
ltibia 26.2402
lfoot -14.9295 12.9866
ltoes -9.69086
113
root 3.44002 17.0104 -7.7839 12.9917 -26.1172 -27.2679
lowerback 9.41493 2.70925 9.02534
upperback 1.67427 4.85938 13.0718
thorax -3.96649 2.29939 8.33228
lowerneck -8.73798 -8.08028 -14.7581
upperneck 31.7559 -12.5934 11.0175
head 13.9496 -6.133 5.02084
rclavicle -1.49089e-014 8.90555e-014
rhumerus -19.4554 4.87886 -42.3891
rradius 80.9616
rwrist -8.13495
rhand -21.5654 23.4101
rfingers 7.12502
rthumb 4.82842 -6.51484
lclavicle -1.49089e-014 8.90555e-014
lhumerus -38.053 14.5829 -6.16366
lradius 33.4942
lwrist -0.733686
lhand -13.8629 40.2832
lfingers 7.12502
lthumb 12.2613 69.9038
rfemur 26.9772 8.20441 13.5645
rtibia 46.5889
rfoot 22.7849 -0.345357
rtoes 20.5237
lfemur -46.0175 4.01055 7.53123
ltibia 25.3152
lfoot -15.0755 14.1492
ltoes -9.2323
114
root 3.37322 16.8825 -7.33272 12.1646 -26.2596 -27.1956
lowerback 9.0041 2.69059 8.92169
upperback 1.80815 4.73147 13.1615
thorax -3.5964 2.24458 8.52561
lowerneck -8.36797 -8.14121 -15.1834
upperneck 32.0641 -12.7349 11.1242
head 14.0795 -6.25288 5.1374
rclavicle 1.2921e-014 -7.79236e-014
rhumerus -21.6143 5.59508 -41.4944
rradius 81.9984
rwrist -9.65234
rhand -22.4645 22.102
rfingers 7.12502
rthumb 3.96026 -7.84098
lclavicle 1.2921e-014 -7.79236e-014
lhumerus -38.3206 14.0472 -6.95329
lradius 34.0728
lwrist -1.23741
lhand -14.6147 39.8175
lfingers 7.12502
lthumb 11.5364 69.48
rfemur 26.784 9.69897 12.9515
rtibia 50.2353
rfoot 22.6725 -0.482289
rtoes 20.5732
lfemur -45.1755 3.47135 7.75189
ltibia 24.9041
lfoot -15.3627 14.5986
ltoes -7.78469
115
root 3.30967 16.7449 -6.87956 11.1811 -26.413 -26.9043
lowerback 8.90727 2.62235 8.59142
upperback 1.69952 4.61819 13.27
thorax -3.68586 2.19594 8.85532
lowerneck -7.7443 -8.1093 -15.5875
upperneck 32.5279 -12.7233 10.979
head 14.174 -6.34589 5.18635
rclavicle -4.1546e-014 -7.4743e-014
rhumerus -21.756 3.08673 -41.5327
rradius 78.9532
rwrist -8.39738
rhand -21.8444 23.018
rfingers 7.12502
rthumb 4.55903 -6.91292
lclavicle -4.1546e-014 -7.4743e-014
lhumerus -38.7693 12.9956 -7.60096
lradius 34.7481
lwrist -2.15683
lhand -15.0378 39.1401
lfingers 7.12502
lthumb 11.1283 68.825
rfemur 26.4624 11.1051 12.0682
rtibia 53.8835
rfoot 22.7781 -1.12773
rtoes 20.2909
lfemur -44.5827 3.74403 7.03271
ltibia 25.3544
lfoot -15.1568 14.2501
ltoes -6.86725
116
root 3.24606 16.6037 -6.44752 10.2628 -26.3866 -26.7255
lowerback 9.07374 2.46515 8.24488
upperback 1.56949 4.43396 13.4289
thorax -3.94415 2.11073 9.25699
lowerneck -7.73235 -8.06702 -15.5978
upperneck 33.2023 -12.587 10.4793
head 14.4154 -6.35502 5.02499
rclavicle 6.69904e-014 1.90833e-014
rhumerus -22.9777 2.27787 -41.0864
rradius 77.9092
rwrist -8.35758
rhand -21.7147 22.9323
rfingers 7.12502
rthumb 4.68429 -6.99587
lclavicle 6.69904e-014 1.90833e-014
lhumerus -39.5113 11.6991 -7.996
lradius 35.7732
lwrist -2.45357
lhand -15.8136 39.5421
lfingers 7.12502
lthumb 10.3799 69.2659
rfemur 25.7648 12.2487 11.3621
rtibia 57.7024
rfoot 22.855 -1.84847
rtoes 19.9422
lfemur -44.2733 5.07453 5.65826
ltibia 26.3092
lfoot -14.1528 12.8837
ltoes -8.50306
117
root 3.18294 16.4223 -5.98384 9.35566 -25.8981 -26.9856
lowerback 8.83424 2.12785 8.74473
upperback 1.63435 3.97243 13.6269
thorax -3.67089 1.87217 9.26902
lowerneck -7.93312 -8.05292 -15.581
upperneck 33.8444 -12.4862 10.072
head 14.7077 -6.35828 4.88158
rclavicle 3.83654e-014 6.20208e-014
rhumerus -24.0988 1.12498 -40.7214
rradius 76.6279
rwrist -8.21088
rhand -21.5435 23.118
rfingers 7.12502
rthumb 4.84956 -6.80649
lclavicle 3.83654e-014 6.20208e-014
lhumerus -40.1451 11.0276 -8.24391
lradius 36.7592
lwrist -2.33251
lhand -16.9922 39.7143
lfingers 7.12502
lthumb 9.24289 69.4917
rfemur 25.5692 12.9685 10.9717
rtibia 61.2516
rfoot 22.4422 -2.5018
rtoes 20.7303
lfemur -44.2682 7.03265 4.07609
ltibia 27.8957
lfoot -12.9607 10.2092
ltoes -10.6602
